<?xml version="1.0" standalone="no"?>
<!DOCTYPE svg PUBLIC "-//W3C//DTD SVG 20010904//EN"
 "http://www.w3.org/TR/2001/REC-SVG-20010904/DTD/svg10.dtd">
<svg version="1.0" xmlns="http://www.w3.org/2000/svg"
 width="281.000000pt" height="282.000000pt" viewBox="0 0 281.000000 282.000000"
 preserveAspectRatio="xMidYMid meet">

<g transform="translate(0.000000,282.000000) scale(0.100000,-0.100000)"
fill="#000000" stroke="none">
<path d="M1275 2680 c-571 -55 -1045 -504 -1136 -1075 -17 -111 -15 -311 5
-425 101 -571 576 -1003 1154 -1050 383 -31 744 101 1012 370 188 188 306 409
357 668 23 118 23 356 0 474 -89 449 -405 817 -835 972 -158 57 -379 83 -557
66z m-176 -360 c108 -55 207 -235 219 -397 4 -64 1 -79 -22 -126 -30 -62 -80
-101 -150 -117 -149 -33 -311 109 -347 305 -26 140 40 293 146 341 43 19 110
17 154 -6z m803 -17 c27 -19 56 -55 78 -94 33 -61 35 -69 35 -159 0 -89 -2
-100 -36 -170 -101 -210 -310 -270 -437 -126 -56 63 -65 144 -32 264 38 137
118 258 199 302 55 31 138 23 193 -17z m-1151 -571 c159 -102 247 -448 142
-564 -33 -37 -89 -58 -152 -58 -247 0 -413 359 -262 567 61 84 185 109 272 55z
m1508 8 c164 -83 175 -366 23 -532 -53 -57 -122 -91 -195 -96 -171 -13 -255
124 -202 330 35 132 99 239 174 288 56 37 139 42 200 10z m-704 -112 c95 -49
143 -121 185 -278 17 -63 43 -135 57 -160 15 -25 73 -93 130 -151 74 -77 111
-124 130 -165 82 -179 1 -328 -189 -350 -42 -4 -72 1 -150 25 -206 64 -401 64
-625 0 -79 -23 -117 -29 -147 -25 -157 25 -237 111 -223 241 10 95 45 155 160
270 119 120 157 182 187 306 39 165 104 254 217 300 71 28 200 22 268 -13z"/>
</g>
</svg>
